# AST/ASF file generated using VICON BodyLanguage
# -----------------------------------------------
:version 1.10
:name VICON
:units
  mass 1.0
  length 0.45
  angle deg
:documentation
   .ast/.asf automatically generated from VICON data using
   VICON BodyBuilder and BodyLanguage model FoxedUp or BRILLIANT.MOD
:root
   order TX TY TZ RX RY RZ
   axis XYZ
   position 0 0 0  
   orientation 0 0 0 
:bonedata
  begin
     id 1 
     name lhipjoint
     direction 0.677091 -0.635792 0.370561 
     length 2.74323 
     axis 0 0 0  XYZ
  end
  begin
     id 2 
     name lfemur
     direction 0.34202 -0.939693 0  
     length 7.44995  
     axis 0 0 20  XYZ
    dof rx ry rz
    limits (-160.0 20.0)
           (-70.0 70.0)
           (-60.0 70.0)
  end
  begin
     id 3 
     name ltibia
     direction 0.34202 -0.939693 0   
     length 7.34467   
     axis 0 0 20   XYZ
    dof rx
    limits (-10.0 170.0)
  end
  begin
     id 4 
     name lfoot
     direction 0.101953 -0.280114 0.954537   
     length 1.72105   
     axis -90 7.62852e-016 20   XYZ
    dof rx rz
    limits (-45.0 90.0)
           (-70.0 20.0)
  end
  begin
     id 5 
     name ltoes
     direction 1.53537e-011 -4.21915e-011 1   
     length 0.865872   
     axis -90 7.62852e-016 20   XYZ
    dof rx
    limits (-90.0 20.0)
  end
  begin
     id 6 
     name rhipjoint
     direction -0.695735 -0.620586 0.361699   
     length 2.81045  
     axis 0 0 0  XYZ 
  end
  begin
     id 7 
     name rfemur
     direction -0.34202 -0.939693 0   
     length 7.29387   
     axis 0 0 -20   XYZ
    dof rx ry rz
    limits (-160.0 20.0)
           (-70.0 70.0)
           (-70.0 60.0)
  end
  begin
     id 8 
     name rtibia
     direction -0.34202 -0.939693 0   
     length 7.44935   
     axis 0 0 -20   XYZ
    dof rx
    limits (-10.0 170.0)
 end
 begin
     id 9 
     name rfoot
     direction -0.104163 -0.286184 0.952496   
     length 1.77731  
     axis -90 -7.62852e-016 -20   XYZ
    dof rx rz
    limits (-45.0 90.0)
           (-20.0 70.0)
  end
  begin
     id 10 
     name rtoes
     direction -1.5355e-011 -4.21888e-011 1   
     length 0.892424   
     axis -90 -7.62852e-016 -20   XYZ
    dof rx
    limits (-90.0 20.0)
  end
  begin
     id 11 
     name lowerback
     direction 0.0100202 0.997226 -0.0737589   
     length 2.16892   
     axis 0 0 0   XYZ
    dof rx ry rz
    limits (-20.0 45.0)
           (-30.0 30.0)
           (-30.0 30.0)
  end
  begin
     id 12 
     name upperback
     direction 0.00432398 0.999988 -0.00215019   
     length 2.17326   
     axis 0 0 0   XYZ
    dof rx ry rz
    limits (-20.0 45.0)
           (-30.0 30.0)
           (-30.0 30.0)
  end
  begin
     id 13 
     name thorax
     direction -0.00195047 0.999485 0.0320434   
     length 2.18139   
     axis 0 0 0   XYZ
    dof rx ry rz
    limits (-20.0 45.0)
           (-30.0 30.0)
           (-30.0 30.0)
  end
  begin
     id 14 
     name lowerneck
     direction 0.00782762 0.986241 0.165128   
     length 1.88415   
     axis 0 0 0   XYZ
    dof rx ry rz
    limits (-20.0 45.0)
           (-30.0 30.0)
           (-30.0 30.0)
  end
  begin
     id 15 
     name upperneck
     direction 0.00988667 0.981098 -0.193258   
     length 1.9242   
     axis 0 0 0   XYZ
    dof rx ry rz
    limits (-20.0 45.0)
           (-30.0 30.0)
           (-30.0 30.0)
  end
  begin
     id 16
     name head
     direction 0.00252199 0.996513 -0.0833958  
     length 1.93887  
     axis 0 0 0   XYZ
    dof rx ry rz
    limits (-20.0 45.0)
           (-30.0 30.0)
           (-30.0 30.0)
  end
  begin
     id 17 
     name lclavicle
     direction 0.929492 0.368193 -0.0218667  
     length 3.5955  
     axis 0 0 0   XYZ
    dof ry rz
    limits (-20.0 10.0)
           (0.0 20.0)
  end
  begin
     id 18 
     name lhumerus
     direction 1 -4.48972e-011 1.41911e-027   
     length 5.2795   
     axis 180 -30 -90   XYZ
    dof rx ry rz
    limits (-60.0 90.0)
           (-90.0 90.0)
           (-90.0 90.0)
  end
  begin
     id 19
     name lradius
     direction 1 -4.48963e-011 7.05772e-027   
     length 3.53504   
     axis 180 -30 -90   XYZ
    dof rx
    limits (-10.0 170.0)
  end
  begin
     id 20
     name lwrist
     direction 1 -4.48957e-011 9.54866e-027   
     length 1.76752   
     axis -7.69462e-015 90 90   XYZ
    dof ry
    limits (-180.0 0.0)
 end
  begin
     id 21 
     name lhand
     direction 1 -4.48979e-011 1.90973e-026   
     length 0.667948   
     axis -1.21857e-014 90 90   XYZ
    dof rx rz
    limits (-90.0 90.0)
           (-45.0 45.0)
  end
  begin
     id 22 
     name lfingers
     direction 1 -4.48987e-011 3.81946e-026   
     length 0.538517   
     axis -2.43714e-014 90 90   XYZ
    dof rx
    limits (0.0 90.0)
  end
  begin
     id 23
     name lthumb
     direction 0.707107 -6.34962e-011 0.707107   
     length 0.773206   
     axis -90 45 2.85299e-015   XYZ
    dof rx rz
    limits (-45.0 45.0)
           (-45.0 45.0)
  end
  begin
     id 24 
     name rclavicle
     direction -0.898763 0.414256 -0.143584   
     length 3.5176  
     axis 0 0 0   XYZ 
    dof ry rz
    limits (-10.0 20.0)
           (-20.0 0.0)
  end
  begin
     id 25 
     name rhumerus
     direction -1 -4.48971e-011 1.129e-027  
     length 5.25035   
     axis 180 30 90   XYZ
    dof rx ry rz
    limits (-90.0 60.0)
           (-90.0 90.0)
           (-90.0 90.0)
  end
  begin
     id 26 
     name rradius
     direction -1 -4.48955e-011 6.34664e-027   
     length 3.58884   
     axis 180 30 90   XYZ
    dof rx
    limits (-10.0 170.0)
  end
  begin
     id 27 
     name rwrist
     direction -1 -4.48966e-011 9.54866e-027   
     length 1.79442   
     axis -7.69462e-015 -90 -90   XYZ
    dof ry
    limits (-180.0 0.0)
  end
  begin
     id 28
     name rhand
     direction -1 -4.48973e-011 1.90973e-026   
     length 0.779235   
     axis -1.21857e-014 -90 -90   XYZ
    dof rx rz
    limits (-90.0 90.0)
           (-45.0 45.0)
  end
  begin
     id 29
     name rfingers
     direction -1 -4.48984e-011 3.81946e-026   
     length 0.62824   
     axis -2.43714e-014 -90 -90   XYZ
    dof rx
    limits (0.0 90.0)
  end
  begin
     id 30
     name rthumb
     direction -0.707107 -6.34968e-011 0.707107   
     length 0.90203   
     axis -90 -45 -2.85299e-015   XYZ
    dof rx rz
    limits (-45.0 45.0)
           (-45.0 45.0)
  end
:hierarchy
  begin
    root lhipjoint rhipjoint lowerback
    lhipjoint lfemur
    lfemur ltibia
    ltibia lfoot
    lfoot ltoes
    rhipjoint rfemur
    rfemur rtibia
    rtibia rfoot
    rfoot rtoes
    lowerback upperback
    upperback thorax
    thorax lowerneck lclavicle rclavicle
    lowerneck upperneck
    upperneck head
    lclavicle lhumerus
    lhumerus lradius
    lradius lwrist
    lwrist lhand lthumb
    lhand lfingers
    rclavicle rhumerus
    rhumerus rradius
    rradius rwrist
    rwrist rhand rthumb
    rhand rfingers
  end

#!OML:ASF I:\Random Stuff\random\construction\7_22_03\Session 2\subj1.ASF
:FULLY-SPECIFIED
:DEGREES
308
root 4.6291 17.5743 -8.43404 4.53991 -65.1926 -1.08146
lowerback 0.945961 -0.769212 4.23369
upperback 0.246628 -0.999704 2.08328
thorax -0.311871 -0.511188 -0.223163
lowerneck -16.8122 -1.31278 -3.79982
upperneck 24.2658 -2.56413 5.72462
head 10.7052 -0.918521 2.32356
rclavicle -3.65267e-014 3.73715e-014
rhumerus -35.539 29.364 -92.1723
rradius 104.986
rwrist -8.81567
rhand -11.3718 31.1887
rfingers 7.12502
rthumb 14.6623 1.72716
lclavicle -3.65267e-014 3.73715e-014
lhumerus 4.34696 -56.8998 68.4118
lradius 112.123
lwrist -3.26514
lhand -9.86494 47.0186
lfingers 7.12502
lthumb 16.1137 76.3687
rfemur 1.55809 17.4433 27.3175
rtibia 7.58526
rfoot -7.42816 -34.4044
rtoes 0.850762
lfemur -16.2685 -16.0633 -10.4945
ltibia 22.1639
lfoot -10.8387 2.42298
ltoes -35.8942
309
root 4.64575 17.5799 -8.48382 3.96619 -64.5124 -0.425569
lowerback 1.03629 -0.712514 4.27594
upperback 0.232578 -0.916988 2.04024
thorax -0.375437 -0.470751 -0.290589
lowerneck -16.7228 -1.41689 -3.95831
upperneck 24.0695 -2.69608 5.88516
head 10.6279 -0.974047 2.38702
rclavicle 2.05742e-014 2.14687e-014
rhumerus -35.3829 29.5165 -92.0714
rradius 104.931
rwrist -8.24294
rhand -11.0788 31.2917
rfingers 7.12502
rthumb 14.9445 1.85086
lclavicle 2.05742e-014 2.14687e-014
lhumerus 4.28908 -57.401 68.5489
lradius 111.814
lwrist -3.05763
lhand -11.447 46.8682
lfingers 7.12502
lthumb 14.5899 76.335
rfemur 1.47557 17.354 27.2158
rtibia 7.60594
rfoot -7.75784 -34.9305
rtoes 2.70571
lfemur -16.5931 -16.3404 -10.6041
ltibia 22.0339
lfoot -10.3733 2.18386
ltoes -35.866
310
root 4.66448 17.5875 -8.53334 3.70609 -63.8117 -0.020438
lowerback 1.07496 -0.689407 4.4278
upperback 0.192198 -0.880198 2.01423
thorax -0.439915 -0.453943 -0.401582
lowerneck -16.7159 -1.50478 -4.05083
upperneck 23.9703 -2.81294 5.99003
head 10.6001 -1.02219 2.42285
rclavicle 1.19271e-014 5.56597e-015
rhumerus -35.0056 29.7571 -91.8638
rradius 104.807
rwrist -7.9953
rhand -10.7333 31.2257
rfingers 7.12502
rthumb 15.2774 1.80992
lclavicle 1.19271e-014 5.56597e-015
lhumerus 3.82333 -57.6748 68.9505
lradius 111.592
lwrist -1.99496
lhand -12.8486 47.1092
lfingers 7.12502
lthumb 13.2391 76.6688
rfemur 1.27209 17.2666 27.1737
rtibia 7.60203
rfoot -7.8528 -35.4898
rtoes 4.19833
lfemur -17.0661 -16.6746 -10.5864
ltibia 21.9299
lfoot -9.89856 2.06994
ltoes -35.7962
311
root 4.68287 17.5924 -8.58182 3.84862 -63.1251 0.0311742
lowerback 1.03407 -0.67618 4.71351
upperback 0.130495 -0.859578 2.00546
thorax -0.483816 -0.445731 -0.57011
lowerneck -16.8177 -1.5897 -4.03079
upperneck 23.9981 -2.94765 6.03595
head 10.6389 -1.07356 2.41771
rclavicle 7.85199e-014 6.36111e-015
rhumerus -34.7104 29.9567 -91.8129
rradius 104.654
rwrist -8.08889
rhand -10.3866 31.3846
rfingers 7.12502
rthumb 15.6113 1.99459
lclavicle 7.85199e-014 6.36111e-015
lhumerus 3.22468 -57.8392 69.4171
lradius 111.452
lwrist 0.0431178
lhand -13.9131 47.6137
lfingers 7.12502
lthumb 12.2129 77.2371
rfemur 0.902063 17.2225 27.2595
rtibia 7.72349
rfoot -8.02042 -36.0949
rtoes 5.19862
lfemur -17.6051 -17.113 -10.3778
ltibia 21.8318
lfoot -9.65264 2.2416
ltoes -35.2597
312
root 4.70182 17.5911 -8.62625 3.97465 -62.4638 0.113405
lowerback 0.973312 -0.719444 4.92561
upperback 0.0783458 -0.917108 2.03918
thorax -0.508624 -0.476263 -0.653089
lowerneck -16.9866 -1.61763 -4.0706
upperneck 24.0597 -2.99597 6.12533
head 10.6995 -1.08436 2.45129
rclavicle 2.99171e-014 5.56597e-015
rhumerus -34.5173 30.4043 -91.8319
rradius 104.501
rwrist -8.32423
rhand -10.4138 31.5211
rfingers 7.12502
rthumb 15.5852 2.12897
lclavicle 2.99171e-014 5.56597e-015
lhumerus 3.10215 -57.889 69.5639
lradius 111.358
lwrist 2.74781
lhand -14.8797 48.8183
lfingers 7.12502
lthumb 11.2808 78.495
rfemur 0.465924 17.2101 27.3075
rtibia 7.97976
rfoot -8.45031 -36.6678
rtoes 6.34757
lfemur -18.1041 -17.536 -10.2106
ltibia 21.7469
lfoot -9.5371 2.48978
ltoes -35.103
313
root 4.71824 17.5892 -8.66819 3.68947 -61.8103 0.566479
lowerback 0.979117 -0.815813 4.88216
upperback 0.0668514 -1.04501 2.09053
thorax -0.528053 -0.540592 -0.573918
lowerneck -17.1985 -1.58609 -4.20702
upperneck 24.0952 -2.92201 6.19925
head 10.7523 -1.0487 2.51305
rclavicle 3.91606e-014 -4.77083e-015
rhumerus -34.3462 31.0719 -91.8201
rradius 104.368
rwrist -8.51106
rhand -10.5948 31.4711
rfingers 7.12502
rthumb 15.4108 2.06551
lclavicle 3.91606e-014 -4.77083e-015
lhumerus 3.32932 -57.9086 69.4542
lradius 111.376
lwrist 5.75144
lhand -16.4464 51.3411
lfingers 7.12502
lthumb 9.76953 81.0945
rfemur 0.0861857 17.1864 27.1905
rtibia 8.35079
rfoot -9.06492 -37.2223
rtoes 7.83731
lfemur -18.4887 -17.8532 -10.2889
ltibia 21.6906
lfoot -9.48778 2.58398
ltoes -34.9315
314
root 4.72965 17.5871 -8.71018 3.17937 -61.1552 1.14914
lowerback 1.05554 -0.842466 4.75199
upperback 0.0778235 -1.07636 2.05486
thorax -0.559431 -0.555942 -0.536367
lowerneck -17.2281 -1.61365 -4.27974
upperneck 23.9357 -2.95857 6.32716
head 10.705 -1.05465 2.56414
rclavicle 6.89783e-014 -1.51076e-014
rhumerus -34.2776 31.3636 -91.8496
rradius 104.324
rwrist -8.72838
rhand -10.3166 31.5222
rfingers 7.12502
rthumb 15.6788 2.13745
lclavicle 6.89783e-014 -1.51076e-014
lhumerus 3.86566 -58.1785 69.0152
lradius 111.639
lwrist 8.54896
lhand -17.0384 51.8871
lfingers 7.12502
lthumb 9.19829 81.6664
rfemur -0.212434 17.149 27.0675
rtibia 8.87082
rfoot -10.0084 -37.7044
rtoes 9.37357
lfemur -18.7005 -17.9507 -10.5217
ltibia 21.6323
lfoot -9.45769 2.60152
ltoes -34.0918
315
root 4.73907 17.5849 -8.7508 2.81942 -60.4784 1.51237
lowerback 1.13057 -0.828156 4.7118
upperback 0.0907783 -1.05248 1.98641
thorax -0.587756 -0.543812 -0.583535
lowerneck -17.0846 -1.6921 -4.30103
upperneck 23.6139 -3.10278 6.54559
head 10.5728 -1.09837 2.62064
rclavicle 1.49089e-014 -3.18055e-015
rhumerus -34.2969 31.3436 -91.9177
rradius 104.4
rwrist -8.92883
rhand -9.85089 31.4144
rfingers 7.12502
rthumb 16.1272 2.0654
lclavicle 1.49089e-014 -3.18055e-015
lhumerus 4.39197 -58.2583 68.5694
lradius 111.851
lwrist 10.7422
lhand -16.4943 52.6479
lfingers 7.12502
lthumb 9.72328 82.4035
rfemur -0.381658 17.0847 27.1001
rtibia 9.30072
rfoot -11.2098 -38.0068
rtoes 11.1433
lfemur -18.8132 -17.595 -10.7524
ltibia 21.6199
lfoot -9.5074 2.84589
ltoes -32.1713
316
root 4.74849 17.5841 -8.78889 2.52969 -59.7768 1.7999
lowerback 1.22123 -0.842637 4.63538
upperback 0.100923 -1.0667 1.96745
thorax -0.627822 -0.551045 -0.558772
lowerneck -12.1773 -1.76652 -6.49903
upperneck 16.0157 -3.14004 10.3911
head 7.16525 -1.04366 4.16862
rclavicle 7.22582e-014 -2.38542e-015
rhumerus -34.3143 31.3377 -91.9198
rradius 104.549
rwrist -8.96556
rhand -9.46258 31.1273
rfingers 7.12502
rthumb 16.5011 1.80902
lclavicle 7.22582e-014 -2.38542e-015
lhumerus 4.69631 -57.9217 68.418
lradius 112.009
lwrist 12.5261
lhand -15.2993 53.1089
lfingers 7.12502
lthumb 10.8761 82.8073
rfemur -0.401748 16.9791 27.0343
rtibia 9.40179
rfoot -12.1537 -38.3106
rtoes 13.1671
lfemur -18.9375 -16.7152 -11.0521
ltibia 21.7686
lfoot -9.87444 3.58245
ltoes -30.0599
317
root 4.75725 17.5891 -8.82546 2.23797 -59.0774 2.09261
lowerback 1.33803 -0.823762 4.54786
upperback 0.0966064 -1.03438 1.92507
thorax -0.695631 -0.535556 -0.55221
lowerneck -12.0462 -1.9111 -6.56364
upperneck 15.5847 -3.33363 10.6082
head 7.02641 -1.12972 4.2246
rclavicle -1.01082e-013 7.95139e-015
rhumerus -34.3801 31.1548 -91.8809
rradius 104.739
rwrist -8.8598
rhand -9.15444 31.0924
rfingers 7.12502
rthumb 16.7978 1.79902
lclavicle -1.01082e-013 7.95139e-015
lhumerus 5.28671 -57.7065 68.0783
lradius 112.192
lwrist 14.2121
lhand -14.7374 53.5894
lfingers 7.12502
lthumb 11.418 83.2585
rfemur -0.340485 16.8678 26.964
rtibia 9.36701
rfoot -12.8418 -38.7539
rtoes 15.1768
lfemur -19.0987 -15.7387 -11.3251
ltibia 22.0578
lfoot -10.6562 4.38944
ltoes -26.5904
